<svg width="24" height="24" viewBox="0 0 24 24" fill="none" xmlns="http://www.w3.org/2000/svg">
<path d="M12 21.5C9.78333 21.5 7.89567 20.7333 6.337 19.2C4.77833 17.6667 3.99933 15.8 4 13.6C4 12.55 4.20433 11.546 4.613 10.588C5.02167 9.63 5.60067 8.784 6.35 8.05L12 2.5L17.65 8.05C18.4 8.78333 18.9793 9.62933 19.388 10.588C19.7967 11.5467 20.0007 12.5507 20 13.6C20 15.8 19.221 17.6667 17.663 19.2C16.105 20.7333 14.2173 21.5 12 21.5ZM12 19.5C13.6667 19.5 15.0833 18.929 16.25 17.787C17.4167 16.645 18 15.2493 18 13.6C18 12.8167 17.85 12.071 17.55 11.363C17.25 10.655 16.8167 10.034 16.25 9.5L12 5.3L7.75 9.5C7.18333 10.0333 6.75 10.6543 6.45 11.363C6.15 12.0717 6 12.8173 6 13.6C6 15.25 6.58333 16.646 7.75 17.788C8.91667 18.93 10.3333 19.5007 12 19.5Z" fill="#494343"/>
</svg>
