<svg width="256" height="256" viewBox="0 0 256 256" fill="none" xmlns="http://www.w3.org/2000/svg">
<path d="M227.31 73.37L182.63 28.68C181.144 27.1939 179.38 26.015 177.439 25.2107C175.497 24.4064 173.416 23.9924 171.315 23.9924C169.213 23.9924 167.133 24.4064 165.191 25.2107C163.25 26.015 161.486 27.1939 160 28.68L36.69 152C35.1978 153.48 34.0147 155.243 33.2095 157.184C32.4044 159.126 31.9932 161.208 32 163.31V208C32 212.243 33.6857 216.313 36.6862 219.314C39.6868 222.314 43.7565 224 48 224H92.69C94.7919 224.007 96.8742 223.596 98.8158 222.79C100.757 221.985 102.52 220.802 104 219.31L227.31 96C228.796 94.5142 229.975 92.7502 230.779 90.8088C231.584 88.8673 231.998 86.7865 231.998 84.685C231.998 82.5836 231.584 80.5027 230.779 78.5612C229.975 76.6198 228.796 74.8558 227.31 73.37ZM51.31 160L136 75.31L152.69 92L68 176.68L51.31 160ZM48 179.31L76.69 208H48V179.31ZM96 204.69L79.31 188L164 103.31L180.69 120L96 204.69ZM192 108.69L147.31 64L171.31 40L216 84.68L192 108.69Z" fill="#494343"/>
</svg>
