<svg width="48" height="48" viewBox="0 0 48 48" fill="none" xmlns="http://www.w3.org/2000/svg">
<path d="M5.5 21.8C9.3 19.7 7.7 15.9 12.9 14.9C16.6 14.2 18.3 16.4 18.9 18.5C22.7 31.4 28.4 29.8 32.6 26.5C35.1 24.5 38.3 25.8 39 29.7C39.8 34 41.8 33.8 42.4 34" stroke="#494343" stroke-linecap="round" stroke-linejoin="round"/>
<path d="M40.5 42.5H7.5C6.96957 42.5 6.46086 42.2893 6.08579 41.9142C5.71071 41.5391 5.5 41.0304 5.5 40.5V7.5C5.5 6.96957 5.71071 6.46086 6.08579 6.08579C6.46086 5.71071 6.96957 5.5 7.5 5.5H40.5C41.0304 5.5 41.5391 5.71071 41.9142 6.08579C42.2893 6.46086 42.5 6.96957 42.5 7.5V40.5C42.5 41.0304 42.2893 41.5391 41.9142 41.9142C41.5391 42.2893 41.0304 42.5 40.5 42.5Z" stroke="#494343" stroke-linecap="round" stroke-linejoin="round"/>
<path d="M12.9 9.2V40.6" stroke="#494343" stroke-linecap="round" stroke-linejoin="round"/>
<path d="M20.3 9.2V40.6" stroke="#494343" stroke-linecap="round" stroke-linejoin="round"/>
<path d="M27.7 9.2V40.6" stroke="#494343" stroke-linecap="round" stroke-linejoin="round"/>
<path d="M35.1 9.2V40.6" stroke="#494343" stroke-linecap="round" stroke-linejoin="round"/>
<path d="M38.8 12.9H7.4" stroke="#494343" stroke-linecap="round" stroke-linejoin="round"/>
<path d="M38.8 20.3H7.4" stroke="#494343" stroke-linecap="round" stroke-linejoin="round"/>
<path d="M38.8 27.7H7.3" stroke="#494343" stroke-linecap="round" stroke-linejoin="round"/>
<path d="M38.8 35.1H7.3" stroke="#494343" stroke-linecap="round" stroke-linejoin="round"/>
</svg>
